# xmcd
#
# Track frame offsets: 
#        150
#        19903
#        39568
#        66455
#        84713
#        104968
#        124285
#        146243
#        166230
#        188545
#        214203
#
# Disc length: 3062 seconds
#
# Revision: 3
# Processed by: cddbd v1.5.2PL0 Copyright (c) Steve Scherf et al.
# Submitted via: ExactAudioCopy v0.90b4
#
DISCID=ab0bf40b
DTITLE=Funky Poets - True To Life
DYEAR=1993
DGENRE=Rap
TTITLE0=Born In The Ghetto
TTITLE1=1975
TTITLE2=Lessons Learned
TTITLE3=It Doesn't Have To Be This Way
TTITLE4=Never Say Never
TTITLE5=Set It Off
TTITLE6=We As A People
TTITLE7=Can You Feel The Love
TTITLE8=When Will We Learn
TTITLE9=How Can You Leave Me Now
TTITLE10=I Only Have Eyes For You
EXTD=
EXTT0=
EXTT1=
EXTT2=
EXTT3=
EXTT4=
EXTT5=
EXTT6=
EXTT7=
EXTT8=
EXTT9=
EXTT10=
PLAYORDER=
